<mxfile host="app.diagrams.net" modified="2023-12-18T18:42:55.822Z" agent="Mozilla/5.0 (Windows NT 10.0; Win64; x64) AppleWebKit/537.36 (KHTML, like Gecko) Chrome/120.0.0.0 Safari/537.36" etag="CVW7ay7-lt_XkdnUSPsP" version="22.1.11" type="device">
  <diagram name="Page-1" id="XPmsYwu825GkLol7DGFs">
    <mxGraphModel dx="1235" dy="614" grid="1" gridSize="10" guides="1" tooltips="1" connect="1" arrows="1" fold="1" page="1" pageScale="1" pageWidth="850" pageHeight="1100" math="0" shadow="0">
      <root>
        <mxCell id="0" />
        <mxCell id="1" parent="0" />
        <mxCell id="897b02Qjri4YMdaliz8o-27" value="&lt;b&gt;&lt;font style=&quot;font-size: 28px;&quot;&gt;USER FLOW&lt;/font&gt;&lt;/b&gt;" style="text;html=1;strokeColor=none;fillColor=none;align=left;verticalAlign=middle;whiteSpace=wrap;rounded=0;" vertex="1" parent="1">
          <mxGeometry x="20" y="60" width="480" height="30" as="geometry" />
        </mxCell>
        <mxCell id="897b02Qjri4YMdaliz8o-30" value="" style="group" vertex="1" connectable="0" parent="1">
          <mxGeometry x="20" y="122.5" width="980" height="377.5" as="geometry" />
        </mxCell>
        <mxCell id="897b02Qjri4YMdaliz8o-28" value="" style="rounded=0;whiteSpace=wrap;html=1;fillColor=default;" vertex="1" parent="897b02Qjri4YMdaliz8o-30">
          <mxGeometry width="980" height="377.5" as="geometry" />
        </mxCell>
        <mxCell id="897b02Qjri4YMdaliz8o-1" value="Create a new split bill.From home page @ split.mtstnt.com" style="rounded=0;whiteSpace=wrap;html=1;" vertex="1" parent="897b02Qjri4YMdaliz8o-30">
          <mxGeometry x="110" y="82.5" width="140" height="70" as="geometry" />
        </mxCell>
        <mxCell id="897b02Qjri4YMdaliz8o-3" value="" style="edgeStyle=orthogonalEdgeStyle;rounded=0;orthogonalLoop=1;jettySize=auto;html=1;" edge="1" parent="897b02Qjri4YMdaliz8o-30" source="897b02Qjri4YMdaliz8o-2" target="897b02Qjri4YMdaliz8o-1">
          <mxGeometry relative="1" as="geometry" />
        </mxCell>
        <mxCell id="897b02Qjri4YMdaliz8o-2" value="Host" style="shape=umlActor;verticalLabelPosition=bottom;verticalAlign=top;html=1;outlineConnect=0;" vertex="1" parent="897b02Qjri4YMdaliz8o-30">
          <mxGeometry x="30" y="87.5" width="30" height="60" as="geometry" />
        </mxCell>
        <mxCell id="897b02Qjri4YMdaliz8o-4" value="Receive bill code and link. &lt;br&gt;Can be shared through chat etc." style="rounded=0;whiteSpace=wrap;html=1;" vertex="1" parent="897b02Qjri4YMdaliz8o-30">
          <mxGeometry x="320" y="82.5" width="170" height="70" as="geometry" />
        </mxCell>
        <mxCell id="897b02Qjri4YMdaliz8o-5" value="" style="edgeStyle=orthogonalEdgeStyle;rounded=0;orthogonalLoop=1;jettySize=auto;html=1;" edge="1" parent="897b02Qjri4YMdaliz8o-30" source="897b02Qjri4YMdaliz8o-1" target="897b02Qjri4YMdaliz8o-4">
          <mxGeometry relative="1" as="geometry" />
        </mxCell>
        <mxCell id="897b02Qjri4YMdaliz8o-6" value="User" style="shape=umlActor;verticalLabelPosition=bottom;verticalAlign=top;html=1;outlineConnect=0;" vertex="1" parent="897b02Qjri4YMdaliz8o-30">
          <mxGeometry x="30" y="257.5" width="30" height="60" as="geometry" />
        </mxCell>
        <mxCell id="897b02Qjri4YMdaliz8o-13" value="Opens the link or enters the code in the web app." style="rounded=0;whiteSpace=wrap;html=1;" vertex="1" parent="897b02Qjri4YMdaliz8o-30">
          <mxGeometry x="110" y="252.5" width="150" height="70" as="geometry" />
        </mxCell>
        <mxCell id="897b02Qjri4YMdaliz8o-14" value="" style="edgeStyle=orthogonalEdgeStyle;rounded=0;orthogonalLoop=1;jettySize=auto;html=1;entryX=0.5;entryY=0;entryDx=0;entryDy=0;" edge="1" parent="897b02Qjri4YMdaliz8o-30" source="897b02Qjri4YMdaliz8o-4" target="897b02Qjri4YMdaliz8o-13">
          <mxGeometry relative="1" as="geometry">
            <Array as="points">
              <mxPoint x="410" y="208" />
              <mxPoint x="185" y="208" />
            </Array>
          </mxGeometry>
        </mxCell>
        <mxCell id="897b02Qjri4YMdaliz8o-10" value="" style="edgeStyle=orthogonalEdgeStyle;rounded=0;orthogonalLoop=1;jettySize=auto;html=1;entryX=0;entryY=0.5;entryDx=0;entryDy=0;" edge="1" parent="897b02Qjri4YMdaliz8o-30" source="897b02Qjri4YMdaliz8o-6" target="897b02Qjri4YMdaliz8o-13">
          <mxGeometry relative="1" as="geometry">
            <mxPoint x="100" y="285" as="targetPoint" />
          </mxGeometry>
        </mxCell>
        <mxCell id="897b02Qjri4YMdaliz8o-16" value="Must login first or create an account. Then choose a nickname to use for the bill." style="rounded=0;whiteSpace=wrap;html=1;" vertex="1" parent="897b02Qjri4YMdaliz8o-30">
          <mxGeometry x="320" y="247.5" width="170" height="80" as="geometry" />
        </mxCell>
        <mxCell id="897b02Qjri4YMdaliz8o-17" value="" style="edgeStyle=orthogonalEdgeStyle;rounded=0;orthogonalLoop=1;jettySize=auto;html=1;" edge="1" parent="897b02Qjri4YMdaliz8o-30" source="897b02Qjri4YMdaliz8o-13" target="897b02Qjri4YMdaliz8o-16">
          <mxGeometry relative="1" as="geometry" />
        </mxCell>
        <mxCell id="897b02Qjri4YMdaliz8o-18" value="Choose the items you buy and the quantities, or add notes." style="rounded=0;whiteSpace=wrap;html=1;" vertex="1" parent="897b02Qjri4YMdaliz8o-30">
          <mxGeometry x="530" y="252.5" width="170" height="70" as="geometry" />
        </mxCell>
        <mxCell id="897b02Qjri4YMdaliz8o-19" value="" style="edgeStyle=orthogonalEdgeStyle;rounded=0;orthogonalLoop=1;jettySize=auto;html=1;" edge="1" parent="897b02Qjri4YMdaliz8o-30" source="897b02Qjri4YMdaliz8o-16" target="897b02Qjri4YMdaliz8o-18">
          <mxGeometry relative="1" as="geometry" />
        </mxCell>
        <mxCell id="897b02Qjri4YMdaliz8o-20" value="Receives the total of the spending. If you already paid, you can press the paid button." style="rounded=0;whiteSpace=wrap;html=1;" vertex="1" parent="897b02Qjri4YMdaliz8o-30">
          <mxGeometry x="740" y="247.5" width="170" height="80" as="geometry" />
        </mxCell>
        <mxCell id="897b02Qjri4YMdaliz8o-21" value="" style="edgeStyle=orthogonalEdgeStyle;rounded=0;orthogonalLoop=1;jettySize=auto;html=1;" edge="1" parent="897b02Qjri4YMdaliz8o-30" source="897b02Qjri4YMdaliz8o-18" target="897b02Qjri4YMdaliz8o-20">
          <mxGeometry relative="1" as="geometry" />
        </mxCell>
        <mxCell id="897b02Qjri4YMdaliz8o-23" value="Host can edit the participants orders if needed." style="rounded=0;whiteSpace=wrap;html=1;" vertex="1" parent="897b02Qjri4YMdaliz8o-30">
          <mxGeometry x="540" y="87.5" width="150" height="55" as="geometry" />
        </mxCell>
        <mxCell id="897b02Qjri4YMdaliz8o-22" style="edgeStyle=orthogonalEdgeStyle;rounded=0;orthogonalLoop=1;jettySize=auto;html=1;" edge="1" parent="897b02Qjri4YMdaliz8o-30" source="897b02Qjri4YMdaliz8o-20" target="897b02Qjri4YMdaliz8o-23">
          <mxGeometry relative="1" as="geometry">
            <mxPoint x="620" y="147.5" as="targetPoint" />
            <Array as="points">
              <mxPoint x="825" y="207.5" />
              <mxPoint x="615" y="207.5" />
            </Array>
          </mxGeometry>
        </mxCell>
        <mxCell id="897b02Qjri4YMdaliz8o-25" value="After all participants paid, the host can close the bill and lock all orders." style="rounded=0;whiteSpace=wrap;html=1;" vertex="1" parent="897b02Qjri4YMdaliz8o-30">
          <mxGeometry x="740" y="82.5" width="170" height="65" as="geometry" />
        </mxCell>
        <mxCell id="897b02Qjri4YMdaliz8o-26" value="" style="edgeStyle=orthogonalEdgeStyle;rounded=0;orthogonalLoop=1;jettySize=auto;html=1;entryX=0;entryY=0.5;entryDx=0;entryDy=0;" edge="1" parent="897b02Qjri4YMdaliz8o-30" source="897b02Qjri4YMdaliz8o-23" target="897b02Qjri4YMdaliz8o-25">
          <mxGeometry relative="1" as="geometry">
            <mxPoint x="740" y="115" as="targetPoint" />
          </mxGeometry>
        </mxCell>
        <mxCell id="897b02Qjri4YMdaliz8o-29" value="&lt;span style=&quot;font-size: 28px;&quot;&gt;&lt;b&gt;Quick Split Bill Creation&lt;/b&gt;&lt;/span&gt;" style="text;html=1;strokeColor=none;fillColor=none;align=left;verticalAlign=middle;whiteSpace=wrap;rounded=0;" vertex="1" parent="897b02Qjri4YMdaliz8o-30">
          <mxGeometry x="30" y="27.5" width="480" height="30" as="geometry" />
        </mxCell>
        <mxCell id="897b02Qjri4YMdaliz8o-59" value="" style="edgeStyle=orthogonalEdgeStyle;rounded=0;orthogonalLoop=1;jettySize=auto;html=1;" edge="1" parent="1" source="897b02Qjri4YMdaliz8o-54" target="897b02Qjri4YMdaliz8o-58">
          <mxGeometry relative="1" as="geometry" />
        </mxCell>
        <mxCell id="897b02Qjri4YMdaliz8o-69" value="" style="edgeStyle=orthogonalEdgeStyle;rounded=0;orthogonalLoop=1;jettySize=auto;html=1;" edge="1" parent="1" source="897b02Qjri4YMdaliz8o-54" target="897b02Qjri4YMdaliz8o-68">
          <mxGeometry relative="1" as="geometry">
            <Array as="points">
              <mxPoint x="170" y="810" />
            </Array>
          </mxGeometry>
        </mxCell>
        <mxCell id="897b02Qjri4YMdaliz8o-54" value="Profile" style="rounded=0;whiteSpace=wrap;html=1;" vertex="1" parent="1">
          <mxGeometry x="110" y="670" width="120" height="60" as="geometry" />
        </mxCell>
        <mxCell id="897b02Qjri4YMdaliz8o-57" value="" style="edgeStyle=orthogonalEdgeStyle;rounded=0;orthogonalLoop=1;jettySize=auto;html=1;" edge="1" parent="1" source="897b02Qjri4YMdaliz8o-55" target="897b02Qjri4YMdaliz8o-54">
          <mxGeometry relative="1" as="geometry" />
        </mxCell>
        <mxCell id="897b02Qjri4YMdaliz8o-55" value="Authentication" style="rounded=0;whiteSpace=wrap;html=1;" vertex="1" parent="1">
          <mxGeometry x="110" y="560" width="120" height="60" as="geometry" />
        </mxCell>
        <mxCell id="897b02Qjri4YMdaliz8o-65" value="" style="edgeStyle=orthogonalEdgeStyle;rounded=0;orthogonalLoop=1;jettySize=auto;html=1;" edge="1" parent="1" source="897b02Qjri4YMdaliz8o-58" target="897b02Qjri4YMdaliz8o-64">
          <mxGeometry relative="1" as="geometry" />
        </mxCell>
        <mxCell id="897b02Qjri4YMdaliz8o-58" value="Create New Bill Form" style="rounded=0;whiteSpace=wrap;html=1;" vertex="1" parent="1">
          <mxGeometry x="280" y="670" width="120" height="60" as="geometry" />
        </mxCell>
        <mxCell id="897b02Qjri4YMdaliz8o-64" value="Bill Home&lt;br&gt;shows items and participant orders." style="rounded=0;whiteSpace=wrap;html=1;" vertex="1" parent="1">
          <mxGeometry x="460" y="670" width="120" height="60" as="geometry" />
        </mxCell>
        <mxCell id="897b02Qjri4YMdaliz8o-71" value="" style="edgeStyle=orthogonalEdgeStyle;rounded=0;orthogonalLoop=1;jettySize=auto;html=1;" edge="1" parent="1" source="897b02Qjri4YMdaliz8o-68" target="897b02Qjri4YMdaliz8o-70">
          <mxGeometry relative="1" as="geometry" />
        </mxCell>
        <mxCell id="897b02Qjri4YMdaliz8o-68" value="Join Bill Form/Modal" style="rounded=0;whiteSpace=wrap;html=1;" vertex="1" parent="1">
          <mxGeometry x="280" y="780" width="120" height="60" as="geometry" />
        </mxCell>
        <mxCell id="897b02Qjri4YMdaliz8o-77" value="" style="edgeStyle=orthogonalEdgeStyle;rounded=0;orthogonalLoop=1;jettySize=auto;html=1;" edge="1" parent="1" source="897b02Qjri4YMdaliz8o-70" target="897b02Qjri4YMdaliz8o-76">
          <mxGeometry relative="1" as="geometry" />
        </mxCell>
        <mxCell id="897b02Qjri4YMdaliz8o-70" value="Nickname Form" style="rounded=0;whiteSpace=wrap;html=1;" vertex="1" parent="1">
          <mxGeometry x="460" y="780" width="120" height="60" as="geometry" />
        </mxCell>
        <mxCell id="897b02Qjri4YMdaliz8o-75" style="edgeStyle=orthogonalEdgeStyle;rounded=0;orthogonalLoop=1;jettySize=auto;html=1;entryX=0.5;entryY=1;entryDx=0;entryDy=0;" edge="1" parent="1" source="897b02Qjri4YMdaliz8o-74" target="897b02Qjri4YMdaliz8o-70">
          <mxGeometry relative="1" as="geometry" />
        </mxCell>
        <mxCell id="897b02Qjri4YMdaliz8o-74" value="Join bill through link" style="rounded=0;whiteSpace=wrap;html=1;" vertex="1" parent="1">
          <mxGeometry x="280" y="890" width="120" height="60" as="geometry" />
        </mxCell>
        <mxCell id="897b02Qjri4YMdaliz8o-80" value="" style="edgeStyle=orthogonalEdgeStyle;rounded=0;orthogonalLoop=1;jettySize=auto;html=1;" edge="1" parent="1" source="897b02Qjri4YMdaliz8o-76" target="897b02Qjri4YMdaliz8o-79">
          <mxGeometry relative="1" as="geometry" />
        </mxCell>
        <mxCell id="897b02Qjri4YMdaliz8o-76" value="Orders Form&lt;br&gt;Show items, existing qty, use buttons to add qtys." style="rounded=0;whiteSpace=wrap;html=1;" vertex="1" parent="1">
          <mxGeometry x="640" y="776.25" width="150" height="67.5" as="geometry" />
        </mxCell>
        <mxCell id="897b02Qjri4YMdaliz8o-78" style="edgeStyle=orthogonalEdgeStyle;rounded=0;orthogonalLoop=1;jettySize=auto;html=1;exitX=0.5;exitY=1;exitDx=0;exitDy=0;" edge="1" parent="1" source="897b02Qjri4YMdaliz8o-76" target="897b02Qjri4YMdaliz8o-76">
          <mxGeometry relative="1" as="geometry" />
        </mxCell>
        <mxCell id="897b02Qjri4YMdaliz8o-79" value="Participant Bill Home,&lt;br&gt;shows current participant orders and all items only." style="rounded=0;whiteSpace=wrap;html=1;" vertex="1" parent="1">
          <mxGeometry x="850" y="776.25" width="130" height="67.5" as="geometry" />
        </mxCell>
        <mxCell id="897b02Qjri4YMdaliz8o-82" value="" style="edgeStyle=orthogonalEdgeStyle;rounded=0;orthogonalLoop=1;jettySize=auto;html=1;" edge="1" parent="1" source="897b02Qjri4YMdaliz8o-81" target="897b02Qjri4YMdaliz8o-54">
          <mxGeometry relative="1" as="geometry" />
        </mxCell>
        <mxCell id="897b02Qjri4YMdaliz8o-83" style="edgeStyle=orthogonalEdgeStyle;rounded=0;orthogonalLoop=1;jettySize=auto;html=1;entryX=0;entryY=0.5;entryDx=0;entryDy=0;" edge="1" parent="1" source="897b02Qjri4YMdaliz8o-81" target="897b02Qjri4YMdaliz8o-55">
          <mxGeometry relative="1" as="geometry">
            <Array as="points">
              <mxPoint x="35" y="590" />
            </Array>
          </mxGeometry>
        </mxCell>
        <mxCell id="897b02Qjri4YMdaliz8o-84" style="edgeStyle=orthogonalEdgeStyle;rounded=0;orthogonalLoop=1;jettySize=auto;html=1;entryX=0;entryY=0.5;entryDx=0;entryDy=0;" edge="1" parent="1" source="897b02Qjri4YMdaliz8o-81" target="897b02Qjri4YMdaliz8o-74">
          <mxGeometry relative="1" as="geometry">
            <Array as="points">
              <mxPoint x="35" y="920" />
            </Array>
          </mxGeometry>
        </mxCell>
        <mxCell id="897b02Qjri4YMdaliz8o-81" value="Actor" style="shape=umlActor;verticalLabelPosition=bottom;verticalAlign=top;html=1;outlineConnect=0;" vertex="1" parent="1">
          <mxGeometry x="20" y="670" width="30" height="60" as="geometry" />
        </mxCell>
      </root>
    </mxGraphModel>
  </diagram>
</mxfile>
